<?xml version="1.0" encoding="utf-8"?>
<!-- Generator: Adobe Illustrator 24.1.2, SVG Export Plug-In . SVG Version: 6.00 Build 0)  -->
<svg version="1.1" xmlns="http://www.w3.org/2000/svg" xmlns:xlink="http://www.w3.org/1999/xlink" x="0px" y="0px"
	 viewBox="0 0 500 500" style="enable-background:new 0 0 500 500;" xml:space="preserve">
<style type="text/css">
	.st0{fill:#FF3030;}
	.st1{fill:#FFFFFF;}
	.st2{display:none;}
	.st3{display:inline;fill:#B3B3B3;}
	.st4{display:inline;fill:#FFFFFF;}
	.st5{display:inline;fill:#999999;}
	.st6{display:inline;}
</style>
<g id="Layer_1">
	<g>
		<path class="st0" d="M250,499.5c-66.6,0-129.3-26-176.4-73.1C26.5,379.3,0.5,316.6,0.5,250c0-66.6,26-129.3,73.1-176.4
			C120.7,26.5,183.4,0.5,250,0.5c66.6,0,129.3,26,176.4,73.1c47.1,47.1,73.1,109.8,73.1,176.4c0,66.6-26,129.3-73.1,176.4
			C379.3,473.5,316.6,499.5,250,499.5z"/>
		<path class="st1" d="M250,1c33.6,0,66.2,6.6,96.9,19.6c29.7,12.5,56.3,30.5,79.1,53.4c22.9,22.9,40.8,49.5,53.4,79.1
			c13,30.7,19.6,63.3,19.6,96.9s-6.6,66.2-19.6,96.9c-12.5,29.7-30.5,56.3-53.4,79.1c-22.9,22.9-49.5,40.8-79.1,53.4
			c-30.7,13-63.3,19.6-96.9,19.6s-66.2-6.6-96.9-19.6c-29.7-12.5-56.3-30.5-79.1-53.4c-22.9-22.9-40.8-49.5-53.4-79.1
			C7.6,316.2,1,283.6,1,250s6.6-66.2,19.6-96.9c12.5-29.7,30.5-56.3,53.4-79.1s49.5-40.8,79.1-53.4C183.8,7.6,216.4,1,250,1 M250,0
			C111.9,0,0,111.9,0,250s111.9,250,250,250s250-111.9,250-250S388.1,0,250,0L250,0z"/>
	</g>
	<g>
		<path class="st1" d="M227.2,241.2c-4.5-47.5-46.7-82.4-94.2-77.9c-47.5,4.5-82.4,46.7-77.9,94.2s46.7,82.4,94.2,77.9
			c41.3-3.9,74-36.6,77.9-77.9c0.3-2.7,0.4-5.4,0.4-8.1S227.4,243.9,227.2,241.2z M141.1,292.6c-23.9,0-43.2-19.3-43.2-43.2
			s19.3-43.2,43.2-43.2s43.2,19.3,43.2,43.2c0,2-0.1,3.9-0.4,5.7C181.1,276.6,162.8,292.6,141.1,292.6z"/>
		<path class="st1" d="M227.2,241.2v101.2c-11.3,0.1-22.2-3.9-30.6-11.4c-3.1-2.8-5.7-6-7.8-9.6c-3.2-5.4-4.9-11.6-4.9-17.9V214
			c0-11.6,5.7-22.1,14.7-29.2C214.9,199.4,225.1,219.5,227.2,241.2z"/>
	</g>
	<g>
		<path class="st1" d="M411,208.4c6.5-11,3-25.3-8.1-31.9c-2.8-1.7-5.9-2.8-9.2-3.1h-5.4l-123.9-0.3h-0.2c-0.1,22.6,18.2,41,40.8,41
			l0,0l49.7,0.1l21.2,0.1l23.2,0.1h0.1c2.5,0,5-0.2,7.4-0.7c0.1,0,0.1,0,0.2-0.1L411,208.4z"/>
		<path class="st1" d="M312,335.6l0.7-0.9c-12.6,2.5-24.8-5.6-27.4-18.2c-1.1-5.4-0.2-11,2.5-15.8c6.4-3.9,13.7-6,21.1-6h14.8
			l20-0.1l59.3-0.1h0.1c22.5,0,40.8,18.2,40.8,40.8L312,335.6z"/>
		<path class="st1" d="M414.3,196.5c0,4.2-1.1,8.3-3.3,11.9l-3.4,4.4l0,0l-0.6,0.8l-63.3,81.7l-12.3,16l-18.7,24.1
			c-12.6,2.5-24.8-5.6-27.4-18.2c-1.1-5.4-0.2-11,2.5-15.8l-0.8,0.5l67.9-87.7l13-16.8l3.1-4c6-7.8,13.1-14.5,21.2-20l0.2-0.1
			c0.5,0,1,0.1,1.5,0.1C405.5,174.8,414.3,184.7,414.3,196.5z"/>
	</g>
	<g>
		<path class="st1" d="M242.3,230.3v6.4c0,1.7,0.8,3.3,2.2,4.4l27.4,20.5c0.9,0.7,1.1,2,0.4,2.9c-0.1,0.1-0.3,0.3-0.4,0.4
			l-27.4,20.5c-1.4,1-2.2,2.6-2.2,4.4v6.4c0.1,1.2,1,2.2,2.3,2.1c0.4,0,0.8-0.1,1.2-0.4l43.4-32.5c1.2-0.8,1.4-2.4,0.5-3.6
			c-0.1-0.2-0.4-0.4-0.5-0.5l-43.4-32.5c-0.9-0.7-2.3-0.5-3,0.4C242.5,229.4,242.3,229.8,242.3,230.3z"/>
		<path class="st1" d="M245.7,253.7l9.9,7.3c1.2,0.9,1.4,2.5,0.5,3.6c-0.1,0.2-0.3,0.4-0.5,0.5l-9.8,7.3c-1,0.7-2.3,0.4-3.1-0.6
			c-0.2-0.4-0.4-0.7-0.4-1.2v-15.3c0-1.2,0.9-2.1,2.1-2.1C244.9,253.3,245.4,253.4,245.7,253.7z"/>
	</g>
</g>
<g id="Layer_2" class="st2">
	<g>
		<path class="st3" d="M250.5,499.4c-66.6,0-129.3-26-176.4-73.1C27,379.2,1,316.5,1,249.9S27,120.6,74.1,73.5
			C121.2,26.3,183.9,0.4,250.5,0.4c66.6,0,129.3,26,176.4,73.1C474,120.6,500,183.2,500,249.9s-26,129.3-73.1,176.4
			C379.8,473.4,317.1,499.4,250.5,499.4z"/>
		<path class="st4" d="M250.5,0.9c33.6,0,66.2,6.6,96.9,19.6C377.1,33,403.7,51,426.6,73.8c22.9,22.9,40.8,49.5,53.4,79.1
			c13,30.7,19.6,63.3,19.6,96.9s-6.6,66.2-19.6,96.9c-12.5,29.7-30.5,56.3-53.4,79.1c-22.9,22.9-49.5,40.8-79.1,53.4
			c-30.7,13-63.3,19.6-96.9,19.6s-66.2-6.6-96.9-19.6c-29.7-12.5-56.3-30.5-79.1-53.4c-22.9-22.9-40.8-49.5-53.4-79.1
			c-13-30.7-19.6-63.3-19.6-96.9s6.6-66.2,19.6-96.9c12.5-29.7,30.5-56.3,53.4-79.1s49.5-40.8,79.1-53.4
			C184.3,7.5,216.9,0.9,250.5,0.9 M250.5-0.1c-138.1,0-250,111.9-250,250s111.9,250,250,250s250-111.9,250-250S388.6-0.1,250.5-0.1
			L250.5-0.1z"/>
	</g>
	<polygon class="st5" points="319.6,245.4 319.6,231.6 291.6,231.6 291.6,245.4 267.2,245.4 266.8,231.6 235.6,231.6 235.6,245.4 
		226.8,245.4 226.8,314.5 368.9,314.5 368.9,231.6 350.3,231.6 350.3,245.4 	"/>
	<g class="st6">
		<path class="st1" d="M289,278.5c-1.2-12.5-12.3-21.7-24.8-20.5c-12.5,1.2-21.7,12.3-20.5,24.8c1.2,12.5,12.3,21.7,24.8,20.5
			c10.8-1,19.5-9.6,20.5-20.5c0.1-0.7,0.1-1.4,0.1-2.1S289.1,279.3,289,278.5z M266.4,292.1c-6.3,0-11.4-5.1-11.4-11.4
			s5.1-11.4,11.4-11.4s11.4,5.1,11.4,11.4c0,0.5,0,1-0.1,1.5C276.9,287.8,272.1,292,266.4,292.1z"/>
		<path class="st1" d="M289,278.5v26.6c-3,0-5.8-1-8-3c-0.8-0.7-1.5-1.6-2-2.5c-0.8-1.4-1.3-3.1-1.3-4.7v-23.5
			c0-3.1,1.5-5.8,3.9-7.7C285.8,267.5,288.5,272.8,289,278.5z"/>
	</g>
	<g class="st6">
		<path class="st1" d="M337.3,269.9c1.7-2.9,0.8-6.6-2.1-8.4c-0.7-0.4-1.5-0.7-2.4-0.8h-1.4l-32.6-0.1h-0.1
			c0,5.9,4.8,10.8,10.7,10.8l0,0l13.1,0l5.6,0l6.1,0h0c0.6,0,1.3-0.1,1.9-0.2c0,0,0,0,0.1,0L337.3,269.9z"/>
		<path class="st1" d="M311.3,303.4l0.2-0.2c-3.3,0.7-6.5-1.5-7.2-4.8c-0.3-1.4-0.1-2.9,0.6-4.2c1.7-1,3.6-1.6,5.6-1.6h3.9l5.3,0
			l15.6,0h0c5.9,0,10.7,4.8,10.7,10.7L311.3,303.4z"/>
		<path class="st1" d="M338.2,266.8c0,1.1-0.3,2.2-0.9,3.1l-0.9,1.2l0,0l-0.2,0.2l-16.6,21.5l-3.2,4.2l-4.9,6.3
			c-3.3,0.7-6.5-1.5-7.2-4.8c-0.3-1.4-0.1-2.9,0.6-4.2l-0.2,0.1l17.8-23l3.4-4.4l0.8-1.1c1.6-2,3.4-3.8,5.6-5.3l0.1,0
			c0.1,0,0.3,0,0.4,0C335.9,261.1,338.2,263.7,338.2,266.8z"/>
	</g>
	<g class="st6">
		<path class="st1" d="M293,275.7v1.7c0,0.5,0.2,0.9,0.6,1.1l7.2,5.4c0.2,0.2,0.3,0.5,0.1,0.8c0,0-0.1,0.1-0.1,0.1l-7.2,5.4
			c-0.4,0.3-0.6,0.7-0.6,1.1v1.7c0,0.3,0.3,0.6,0.6,0.6c0.1,0,0.2,0,0.3-0.1l11.4-8.5c0.3-0.2,0.4-0.6,0.1-0.9
			c0-0.1-0.1-0.1-0.1-0.1l-11.4-8.5c-0.2-0.2-0.6-0.1-0.8,0.1C293,275.4,293,275.5,293,275.7z"/>
		<path class="st1" d="M293.9,281.8l2.6,1.9c0.3,0.2,0.4,0.6,0.1,0.9c0,0.1-0.1,0.1-0.1,0.1l-2.6,1.9c-0.3,0.2-0.6,0.1-0.8-0.2
			c-0.1-0.1-0.1-0.2-0.1-0.3v-4c0-0.3,0.2-0.6,0.6-0.6C293.7,281.7,293.8,281.8,293.9,281.8z"/>
	</g>
	<path class="st5" d="M153.5,245.4v-13.8h-21.3v82.9h71v-82.9h-19v13.8H153.5z M170.3,307.8c-6.1,0-11-4.9-11-11c0-6.1,4.9-11,11-11
		c6.1,0,11,4.9,11,11C181.3,302.8,176.4,307.8,170.3,307.8z"/>
	<path class="st5" d="M250.5,6.6C116.1,6.6,7.2,115.5,7.2,249.9c0,134.4,108.9,243.3,243.3,243.3c134.4,0,243.3-108.9,243.3-243.3
		C493.8,115.5,384.9,6.6,250.5,6.6z M95.7,190.1l67.7-75.8h10.8l-44.7,75.8V208h23.9v-17.9l45.1-75.8h8.1l-22.6,74V208h22.6v-17.9
		l22.6-75.8h6.3v77.6V208h30.6l-2.6-93.7h9.9l18.1,65.6V208h28v-17l-19.9-76.7h11.7l38.8,76.7v17h24.4v-17l-46-76.7h11.7l65,75.8
		v55.3h-12.8v92.8H108.5v-92.8H95.7V190.1z M439.9,385.5H61.1c0-19.6,15.9-35.5,35.5-35.5h307.7C424,350,439.9,365.9,439.9,385.5z"
		/>
</g>
</svg>
