<svg xmlns="http://www.w3.org/2000/svg" width="5158" height="3333" viewBox="0 0 5158 3333">
  <defs>
    <style>
      .cls-1 {
        fill: #fff;
        fill-rule: evenodd;
      }
    </style>
  </defs>
  <path id="Color_Fill_1" data-name="Color Fill 1" class="cls-1" d="M2667,414c281.66-2.658,497.17,38.286,589,224,19.93,40.309,32.33,88.094,42,138q5.505,46.5,11,93h624c99.83-.008,203.21-14.068,249,42,15.91,19.476,24,43.137,32,71,6.91,24.05-6.6,65.34-11,83q-17.505,94.485-35,189l-170,874q-13.995,72.495-28,145c-19.42,77.18-15.47,125.4-83,157-36.94,17.29-109.62,9-161,9H1723c-60.58,0-134.11,7.01-171-17-20.76-13.51-40.06-35.93-50-60-10.13-24.54-10.54-53.71-17-82q-18.495-95.49-37-191-77.49-401.46-155-803-20.505-105.99-41-212c-7.73-36.69-19.02-85.546-4-124,35.95-92.056,119.2-81,244-81h613c12.87,0,47.06,4.89,55-2q4.5-29,9-58c11.37-53.8,18.87-109.119,38-155,34.85-83.6,92.19-141.37,171-181,33.79-16.992,75.2-22.261,111-38l127-17Zm15,78-38,2-98,16c-116.24,32.147-181.5,93.706-224,200-13.34,33.367-21.36,69.964-26,113-1.34,12.426-6.86,39.95,1,47l867-2c-1.68-55.8-20.52-110.761-37-154C3061,540.809,2921.7,491.586,2682,492ZM2153,907q-9.495,6-19,12c-28.35,21.916-4.12,48.291,16,61l4-1q1.005-35,2-70C2154.2,906.958,2155.98,908.293,2153,907Zm1012,5c-7.18,5.525-16.74,10.748-21,19-11.48,22.245,10.4,44.7,28,48q-1.995-32.5-4-65C3166.2,911.958,3167.98,913.293,3165,912Zm146,2v59h4C3333.9,956.072,3339.41,926.374,3311,914Zm-1020,2c-2.3,11.242-5.27,49.443,1,58C2313.2,964.12,2322.09,921.2,2291,916Zm-366,148c-13.56,6.8-34.37.69-51,5-48.57,12.59-107.09,18.84-147,41-28.59,15.87-58.99,29.35-86,47-104.16,68.04-184.63,169.28-230,296-11.04,30.85-17.76,66.24-25,100-14.63,68.25-1.71,180.07,15,232,64.78,201.33,162.9,306.36,347,388,58.5,25.94,128.36,38.99,212,39q28.995-1.005,58-2c60.07-12.01,120.05-22.78,171-46,28.57-13.02,55.03-32.11,82-46q13.995,19.005,28,38c42.18,45.86,91.05,72.77,161,92,16.95,4.66,44.6,11.02,66,7V1775c0.01-78.56,12.44-169.46-4-240C2458.31,1261.68,2261.99,1063.73,1925,1064Zm852,67-3,3c-1.72,125.42,87.1,223,179,255,22.84,7.95,50.57,9.23,76,16q171.99,0.495,344,1v1q-180.975,234.48-362,469c-33.86,45.06-123.32,111.46-105,200,15.49,74.88,64.4,119.95,139,136q101.49-1.005,203-2h432c63.58,0,138.77,6.61,197-3,26.97-4.45,70.74,7.97,89-3,7.96-56.54-21.14-110.01-43-143-43.4-65.5-102.15-102.41-189-122q-45.99-1.005-92-2-117.495,1.005-235,2-49.995-.495-100-1v-1q182.985-236.97,366-474c35.33-49.25,128.47-124.73,91-222-50.48-131.05-155.53-107.01-328-107C3213.11,1134.01,2998.16,1130.98,2777,1131Zm-842,220c155.01-2.3,255.81,80.39,292,197,16.87,54.36,17.95,150.82-5,200-45.27,97.01-120.93,160.43-246,178-47.45,6.67-99.33-8.96-131-24-115.61-54.9-222.54-188.29-159-364,28.89-79.89,91.65-138.18,170-169q30-7.995,60-16C1922.87,1352.05,1928.79,1353.93,1935,1351Zm705,147-12,12c-0.02,18.08-4.37,47.86,2,62,7.3,16.21,33.83,27.85,48,38q30.99,24.495,62,49c29.13,20.86,66.6,39.61,88,68v7c-33.72,25.2-67.23,51.72-102,77q-7.995,8.505-16,17c-32.61,16.8-57.66,40.94-82,66q0.495,30.99,1,62c1.67,1.33,3.33,2.67,5,4,35.58,0.63,70.76-41.34,94-58,43.64-31.3,84.4-61.75,128-93l28-25c22.22-12.7,44.83-28.03,62-46v-15c-3.8-10.77-52.43-43.17-64-51-57.51-38.93-111.22-83.34-168-124C2696.83,1535.7,2664.4,1498.61,2640,1498Zm-2,166c-4.35,3.96-8.03,7.66-12,12-0.42,35.45-8.85,99.16,12,118,23.72,0.12,70.82-43.26,84-58q-0.495-6-1-12C2715.31,1711.13,2655.68,1664.27,2638,1664Z"/>
</svg>
